<svg width="42" height="40" viewBox="0 0 42 40" fill="none" xmlns="http://www.w3.org/2000/svg">
<path d="M37.4707 29.6142C38.4846 27.8528 39.0258 25.88 39.0463 23.8714C39.0667 21.8627 38.5657 19.8804 37.5878 18.1006C36.6099 16.3208 35.1854 14.7986 33.4409 13.6695C31.6965 12.5404 29.6861 11.8393 27.5885 11.6286C26.9278 10.0946 25.9453 8.70517 24.7012 7.54531C23.4572 6.38545 21.9777 5.47954 20.3533 4.88304C18.729 4.28653 16.9939 4.01197 15.2543 4.07615C13.5146 4.14033 11.807 4.54191 10.236 5.2563C8.66494 5.9707 7.26348 6.98289 6.11736 8.23093C4.97125 9.47898 4.10458 10.9366 3.5704 12.5147C3.03622 14.0927 2.84575 15.758 3.01067 17.4086C3.17558 19.0592 3.69241 20.6603 4.52951 22.1141L3.478 25.6197C3.38147 25.9412 3.37698 26.2815 3.46501 26.6052C3.55304 26.9289 3.73037 27.2243 3.97863 27.4608C4.2269 27.6973 4.53705 27.8662 4.87695 27.9501C5.21684 28.034 5.5741 28.0297 5.91171 27.9379L9.5927 26.9363C11.0814 27.7139 12.7179 28.201 14.4066 28.3691C15.0903 29.9575 16.1184 31.3905 17.4238 32.5743C18.7291 33.7582 20.2822 34.6662 21.9815 35.2389C23.6807 35.8116 25.4878 36.0362 27.2845 35.8979C29.0811 35.7595 30.8269 35.2614 32.4075 34.4362L36.0885 35.4379C36.4261 35.5297 36.7833 35.534 37.1232 35.4501C37.4631 35.3662 37.7732 35.1973 38.0215 34.9609C38.2698 34.7244 38.4471 34.429 38.5352 34.1053C38.6233 33.7816 38.6188 33.4414 38.5223 33.1199L37.4707 29.6142ZM9.72103 24.9888C9.62956 24.9888 9.53853 25.0009 9.45058 25.0249L5.37097 26.135L6.53655 22.2495C6.57336 22.1267 6.58344 21.998 6.56617 21.8713C6.54889 21.7446 6.50463 21.6226 6.43609 21.5128C5.09108 19.3529 4.6202 16.7997 5.11187 14.3326C5.60353 11.8654 7.02393 9.6541 9.10634 8.11376C11.1888 6.57342 13.79 5.81003 16.4215 5.96694C19.0531 6.12384 21.534 7.19023 23.3985 8.9659C25.2629 10.7416 26.3826 13.1043 26.5474 15.6106C26.7121 18.1169 25.9106 20.5942 24.2932 22.5775C22.6759 24.5607 20.354 25.9135 17.7635 26.3817C15.173 26.85 12.4921 26.4015 10.2243 25.1206C10.072 25.0343 9.89817 24.9888 9.72103 24.9888V24.9888ZM35.4636 29.7495L36.6294 33.635L32.5496 32.525C32.4206 32.4898 32.2855 32.4802 32.1525 32.4966C32.0194 32.513 31.8913 32.5552 31.7761 32.6205C30.5004 33.3407 29.0831 33.8037 27.6119 33.9809C26.1407 34.1582 24.6469 34.0459 23.2231 33.651C21.7994 33.2562 20.4759 32.5871 19.3346 31.6854C18.1933 30.7836 17.2586 29.6683 16.5883 28.4085C18.4294 28.2948 20.2228 27.8031 21.8455 26.9669C23.4682 26.1308 24.8817 24.9701 25.9888 23.5645C27.096 22.1589 27.8706 20.5418 28.2596 18.8242C28.6485 17.1066 28.6425 15.3291 28.242 13.6139C29.9541 13.9195 31.5636 14.6138 32.9339 15.638C34.3043 16.6622 35.395 17.9861 36.1136 19.4973C36.8322 21.0086 37.1575 22.6626 37.0618 24.3191C36.9661 25.9755 36.4524 27.5856 35.5641 29.0127C35.4955 29.1225 35.4513 29.2445 35.434 29.3712C35.4167 29.4979 35.4268 29.6266 35.4636 29.7495Z" fill="white"/>
</svg>
