<svg width="1920" height="1076" viewBox="0 0 1920 1076" fill="none" xmlns="http://www.w3.org/2000/svg">
<path opacity="0.11" d="M0 607.406C0 607.406 100.42 847.35 401.168 798.883C701.915 750.416 843.194 808.46 938.747 913.824C1034.3 1019.19 1290.8 1008.15 1519.68 966.198C1748.55 924.243 1882.81 1007.99 1920 1075.64C1920.02 1075.65 1919.63 0.0269775 1919.63 0.0269775L0.0440022 0L0 607.406Z" fill="url(#paint0_linear_1_4)"/>
<path d="M0.0579834 607.558C0.0579834 607.558 95.3179 811.751 401.23 768.705C707.142 725.659 820.846 736.605 945.366 865.597C1069.89 994.589 1289.31 973.137 1518.22 932.663C1747.13 892.189 1878.38 1000.82 1919.97 1075.63C1920.01 1073.23 1919.9 0.0100098 1919.9 0.0100098L0.0809915 0.0210266L0.0579834 607.558Z" fill="url(#paint1_linear_1_4)"/>
<path opacity="0.14" d="M25.7185 687.743C25.7185 687.743 199.944 295.697 843.074 432.711C1486.2 569.725 1712.41 510.178 1899.13 -31.271" stroke="#CF5DDE" stroke-width="128"/>
<path d="M498.547 552.813L507.633 562.277C507.869 562.522 508.265 562.522 508.501 562.277L510.342 560.36C510.616 560.077 510.555 559.615 510.21 559.421C505.457 556.731 499.566 553.398 498.547 552.813ZM495.795 553.441C495.691 553.682 495.625 553.941 495.625 554.234V574.884C495.625 575.12 495.677 575.337 495.757 575.545L505.986 564.892C506.212 564.66 506.212 564.292 505.986 564.056L495.795 553.441ZM513.075 561.186C512.948 561.205 512.825 561.267 512.73 561.366L510.144 564.056C509.917 564.288 509.917 564.656 510.144 564.892L512.707 567.559C512.896 567.757 513.202 567.799 513.443 567.662C515.232 566.648 516.44 565.968 516.44 565.968C517.045 565.6 517.384 565.038 517.375 564.424C517.366 563.825 517.016 563.268 516.436 562.942C516.365 562.9 515.185 562.234 513.462 561.262C513.344 561.191 513.207 561.168 513.075 561.186ZM508.067 566.487C507.907 566.487 507.751 566.548 507.628 566.676L498.613 576.059C500.166 575.177 505.688 572.052 510.186 569.508C510.531 569.31 510.592 568.847 510.319 568.564L508.501 566.676C508.383 566.548 508.228 566.487 508.067 566.487Z" fill="white"/>
<defs>
<linearGradient id="paint0_linear_1_4" x1="960" y1="0" x2="960" y2="1075.64" gradientUnits="userSpaceOnUse">
<stop stop-color="#8253D8"/>
<stop offset="1" stop-color="#2E82EF"/>
</linearGradient>
<linearGradient id="paint1_linear_1_4" x1="960.019" y1="0.0100098" x2="960.019" y2="1075.63" gradientUnits="userSpaceOnUse">
<stop stop-color="#8253D8"/>
<stop offset="1" stop-color="#D05DDE"/>
</linearGradient>
</defs>
</svg>
